<svg data-name="Layer 1" xmlns="http://www.w3.org/2000/svg" viewBox="0 0 32 32"><defs><linearGradient id="a" x1="15.223" y1="16.864" x2="31.409" y2="30.479" gradientUnits="userSpaceOnUse"><stop offset=".059" stop-color="#fdc403"/><stop offset=".263" stop-color="#fdad03"/><stop offset=".57" stop-color="#e76025"/><stop offset=".758" stop-color="#ad2279"/></linearGradient></defs><g fill="#9aa7b0"><path opacity=".7" style="isolation:isolate" d="M12-.024l-8 8h8v-8z"/><path d="M20.477 29.161a18.227 18.227 0 0 1-6.473-13.185v-3.768l3.121 2.111a27.391 27.391 0 0 0 7.592 3.983c.434.146.854.29 1.283.465V-.024H14v10H4v20h17.611q-.564-.365-1.134-.815z" opacity=".7" style="isolation:isolate"/></g><path d="M30.857 29.687s-4.39 1.66-9.14-2.094a16.27 16.27 0 0 1-5.713-11.617c8.445 5.713 8.299 3.06 12.568 6.855a6.904 6.904 0 0 1 2.285 6.856z" fill="url(#a)"/><path d="M28.572 22.831c-4.27-3.796-4.123-1.142-12.569-6.855a16.27 16.27 0 0 0 5.713 11.617c4.752 3.754 9.141 2.094 9.141 2.094a6.904 6.904 0 0 0-2.285-6.856zm1.804 6.405a7.901 7.901 0 0 1-2.003.246 10.098 10.098 0 0 1-6.302-2.338 15.88 15.88 0 0 1-5.432-10.06 28.108 28.108 0 0 0 7.258 3.656 10.06 10.06 0 0 1 4.296 2.519 6.343 6.343 0 0 1 2.183 5.977z" fill="url(#a)"/><path d="M32 31.972a.884.884 0 0 1-.8-.19c-.547-.44-1.985-3.602-6.09-6.23-3.73-2.387-5.47-4.452-8.442-8.238 4.42 5.205 4.844 4.754 9.583 7.945A22.98 22.98 0 0 1 32 30.83v1.143z" fill="#4898c9"/></svg>