<svg xmlns="http://www.w3.org/2000/svg" xmlns:xlink="http://www.w3.org/1999/xlink" width="320" height="320"><defs><path id="b" d="M180 140c20-60 0-110-60-110S10 80 10 150s50 120 110 120q40 0 60-50 20 10 35-5 25 10 35-5 20 5 30-10 30 0 30-30t-130-30z"/><mask id="a"><path fill="#fff" d="M0 0h320v320H0z"/><circle cx="120" cy="90" r="25"/></mask></defs><g fill="#bfbfbf"><rect width="100" height="90" x="80" y="230" rx="60" ry="30" transform="rotate(-15 80 230)"/><g stroke="#bfbfbf" stroke-width="5"><use stroke-width="20" mask="url(#a)" xlink:href="#b"/><path d="M210 120q-30-60 60-80-10 10-10 30 0 40-50 50z"/><path d="M180 80q-20 20 0 40l25-10-2-10q17 0 37 10-20-30-60-30z"/></g></g></svg>