<svg xmlns="http://www.w3.org/2000/svg" viewBox="0 0 32 32"><path fill="#9aa7b0" opacity=".7" d="M2 26h28v4H2zM4 2h24v22H4z"/><path d="M17 13.996a13.235 13.235 0 0 1-.218 2.528 5.546 5.546 0 0 1-.703 1.89 3.274 3.274 0 0 1-1.246 1.18 3.886 3.886 0 0 1-1.85.406 3.636 3.636 0 0 1-1.76-.407 3.368 3.368 0 0 1-1.242-1.18 5.805 5.805 0 0 1-.737-1.89A11.883 11.883 0 0 1 9 13.997a13.235 13.235 0 0 1 .218-2.528 5.62 5.62 0 0 1 .694-1.885 3.23 3.23 0 0 1 1.234-1.176A3.84 3.84 0 0 1 12.983 8a3.71 3.71 0 0 1 1.773.403 3.367 3.367 0 0 1 1.25 1.172 5.76 5.76 0 0 1 .746 1.885A11.727 11.727 0 0 1 17 13.996zm-6.415 0a14.861 14.861 0 0 0 .128 2.089 5.21 5.21 0 0 0 .411 1.487 2.117 2.117 0 0 0 .741.893 2.002 2.002 0 0 0 1.118.299 2.044 2.044 0 0 0 1.122-.295 2.165 2.165 0 0 0 .758-.885 4.96 4.96 0 0 0 .428-1.487 14.538 14.538 0 0 0 .133-2.101 14.389 14.389 0 0 0-.133-2.089 4.955 4.955 0 0 0-.428-1.483 2.165 2.165 0 0 0-.758-.885 2.044 2.044 0 0 0-1.122-.295 2.022 2.022 0 0 0-1.118.295 2.092 2.092 0 0 0-.74.885 5.155 5.155 0 0 0-.412 1.483 14.861 14.861 0 0 0-.128 2.089zM23 19.833h-1.617v-7.39q0-.347.004-.744t.019-.79q.013-.392.027-.752t.023-.635q-.156.145-.276.25t-.243.203l-.262.206q-.138.11-.33.255l-1.361.98-.882-.996L21.622 8H23v11.833z" fill="#231f20" opacity=".6" style="isolation:isolate"/></svg>