<svg xmlns="http://www.w3.org/2000/svg" viewBox="0 0 32 32"><path d="M12 24c0-5.522 4.925-10 11-10a11.642 11.642 0 0 1 7 2.286V10H15.97l-2.577-2.577A5.6 5.6 0 0 0 9.958 6H2.103A.103.103 0 0 0 2 6.103V28h10.921A9.194 9.194 0 0 1 12 24z" fill="#f26522" opacity=".6"/><g fill="#9aa7b0"><path d="M32 23.999v.005A9.582 9.582 0 0 0 23 23.983v-.01c0-1.754 2.543-3.717 4.098-4.158C31.023 18.702 32 22.524 32 23.999zm-13.096 4.186c1.555-.44 4.097-2.404 4.098-4.158v-.01a9.583 9.583 0 0 1-8.999-.02V24c0 1.475.977 5.297 4.9 4.184z"/><path d="M18.501 16.755l.005-.002a7.876 7.876 0 0 0 1.204 4.204 8.67 8.67 0 0 0 3.276 3.051l-.01.005c-1.633.877-4.733-.188-5.922-1.22-2.999-2.603.073-5.3 1.447-6.038zm10.448 8.451c-1.189-1.032-4.289-2.096-5.922-1.22l-.01.005a8.667 8.667 0 0 1 3.275 3.051 7.877 7.877 0 0 1 1.205 4.204l.005-.002c1.373-.737 4.446-3.435 1.447-6.038z"/><path d="M18.503 31.245l-.004-.002a8.67 8.67 0 0 0 3.314-3.072 7.882 7.882 0 0 0 1.204-4.163l.01.005c1.633.877 2.19 3.906 1.824 5.378-.925 3.717-4.974 2.592-6.348 1.854zm2.648-12.637c-.366 1.473.192 4.501 1.825 5.378l.01.005a7.877 7.877 0 0 1 1.204-4.162 8.67 8.67 0 0 1 3.314-3.072l-.004-.003c-1.374-.737-5.423-1.862-6.349 1.854z"/></g></svg>