<svg xmlns="http://www.w3.org/2000/svg" viewBox="0 0 32 32"><g fill="#9aa7b0"><path opacity=".7" style="isolation:isolate" d="M12 0L4 8h8V0z"/><path d="M12 23a10.976 10.976 0 0 1 14-10.575V0H14v10H4v20h10.515A10.956 10.956 0 0 1 12 23z" opacity=".7" style="isolation:isolate"/></g><path d="M21.202 32v-2.552a6.73 6.73 0 0 1-1.485-.618l-1.806 1.805-2.547-2.544 1.807-1.806a6.682 6.682 0 0 1-.617-1.486h-2.552V21.2h2.552a6.682 6.682 0 0 1 .617-1.485l-1.807-1.806 2.546-2.545 1.806 1.805a6.73 6.73 0 0 1 1.485-.617V14H24.8v2.552a6.73 6.73 0 0 1 1.485.617l1.806-1.805 2.544 2.545-1.804 1.806a6.616 6.616 0 0 1 .615 1.485H32v3.6h-2.554a6.615 6.615 0 0 1-.615 1.485l1.805 1.806-2.544 2.544-1.806-1.805a6.73 6.73 0 0 1-1.486.618V32M23 20.398A2.602 2.602 0 1 0 25.603 23a2.601 2.601 0 0 0-2.601-2.602z" fill="#40b6e0"/></svg>