<svg xmlns="http://www.w3.org/2000/svg" viewBox="0 0 16 16"><path fill="#9AA7B0" opacity=".7" d="M2 4h4V0z"/><path fill="#9AA7B0" opacity=".7" d="M7 0h6v8H2V5h5V0z"/><path fill="#FF9595" opacity=".6" d="M1 9h16v7H1z"/><path fill="#231f20" opacity=".7" d="M2 12.514V12.5A2.34 2.34 0 0 1 4.256 10a2.176 2.176 0 0 1 1.712.752l-.493.63a1.67 1.67 0 0 0-1.225-.601 1.566 1.566 0 0 0-1.444 1.705v.014a1.569 1.569 0 0 0 1.444 1.713 1.64 1.64 0 0 0 1.256-.622l.494.553A2.17 2.17 0 0 1 4.225 15 2.327 2.327 0 0 1 2 12.514z"/><path stroke="#231f20" opacity=".7" stroke-width=".6" d="M8.5 11v3M7 12.5h3M11 12.5h3M12.5 11v3"/></svg>