<svg xmlns="http://www.w3.org/2000/svg" viewBox="0 0 32 32"><path fill="#62b543" opacity=".6" d="M2 18h30v14H2z"/><path fill="#231f20" opacity=".6" d="M4 25.028V25c0-2.75 1.862-5 4.512-5a4.353 4.353 0 0 1 3.425 1.505l-.987 1.257a3.339 3.339 0 0 0-2.45-1.2c-1.663 0-2.888 1.518-2.888 3.41v.029c0 1.891 1.212 3.424 2.888 3.424a3.28 3.28 0 0 0 2.512-1.242L12 28.287A4.338 4.338 0 0 1 8.45 30C5.9 30 4 27.805 4 25.028z"/><path fill="#9aa7b0" opacity=".7" style="isolation:isolate" d="M12 0L4 8h8V0z"/><path fill="#9aa7b0" opacity=".7" style="isolation:isolate" d="M14 0v10H4v6h22V0H14z"/><path d="M16 21v8m4-8v8m-6.5-6h9m-9 4h9" stroke="#231f20" stroke-width="1.5" opacity=".6"/></svg>