<svg xmlns="http://www.w3.org/2000/svg" viewBox="0 0 32 32"><path fill="#62b543" opacity=".6" d="M2 18h30v14H2z"/><path fill="#231f20" opacity=".6" d="M4 25.028V25C4 22.25 5.862 20 8.512 20a4.353 4.353 0 0 1 3.425 1.505l-.987 1.257a3.339 3.339 0 0 0-2.45-1.2c-1.663 0-2.888 1.518-2.888 3.41v.029c0 1.891 1.212 3.424 2.888 3.424a3.28 3.28 0 0 0 2.512-1.242L12 28.287A4.338 4.338 0 0 1 8.45 30C5.9 30 4 27.805 4 25.028z"/><path fill="#9aa7b0" opacity=".7" style="isolation:isolate" d="M12 0L4 8h8V0z"/><path fill="#9aa7b0" opacity=".7" style="isolation:isolate" d="M14 0v10H4v6h22V0H14z"/><path fill="#231f20" opacity=".6" d="M17.414 25.75c1.903.416 2.313.792 2.313 1.486v.028c0 .722-.704 1.221-1.816 1.221-.03 0-.056-.006-.086-.007v.013h-2.932V30l2.934-.003.026.003c2.167 0 3.676-1.082 3.676-2.901v-.03c0-1.609-1.113-2.345-3.28-2.845-1.978-.445-2.447-.779-2.447-1.529v-.028c0-.639.615-1.152 1.67-1.152l.038-.01v.004h2.803V20h-2.63l-.001.014c-.062-.002-.118-.014-.181-.014C15.465 20 14 21.153 14 22.82v.028c0 1.79 1.231 2.402 3.414 2.902zM25.884 25.75c1.904.416 2.314.792 2.314 1.486v.028c0 .722-.704 1.221-1.816 1.221-.03 0-.056-.006-.086-.007v.013h-2.933V30l2.934-.003c.014.001.027.004.04.004C28.491 30 30 28.917 30 27.098v-.03c0-1.609-1.114-2.345-3.28-2.845-1.978-.445-2.447-.779-2.447-1.529v-.028c0-.639.614-1.152 1.67-1.152.015 0 .022-.008.037-.01v.004h2.804V20h-2.63l-.002.014c-.062-.002-.117-.014-.18-.014-2.037 0-3.501 1.153-3.501 2.82v.028c0 1.79 1.231 2.402 3.413 2.902z"/></svg>