<svg data-name="Layer 1" xmlns="http://www.w3.org/2000/svg" viewBox="0 0 16 16"><path fill="#9aa7b0" opacity=".7" style="isolation:isolate" d="M6 0L2 4h4V0z"/><path fill="#40b6e0" opacity=".6" d="M1 9h15v7H1z"/><path fill="#9aa7b0" opacity=".7" style="isolation:isolate" d="M7 0v5H2v3h11V0H7z"/><g opacity=".6"><path d="M2.832 14.204l.558-.592a1.185 1.185 0 0 0 .97.585.8.8 0 0 0 .766-.972V10H6v3.253a1.813 1.813 0 0 1-.454 1.31A1.59 1.59 0 0 1 4.375 15a1.805 1.805 0 0 1-1.543-.796z" fill="#231f20"/></g></svg>