<svg xmlns="http://www.w3.org/2000/svg" viewBox="0 0 30 32"><path fill="#9aa7b0" opacity=".7" style="isolation:isolate" d="M10 0L2 8h8V0z"/><path fill="#f26522" opacity=".6" d="M0 18h30v14H0z"/><path fill="#9aa7b0" opacity=".7" style="isolation:isolate" d="M12 0v10H2v6h22V0H12z"/><path d="M13.414 25.75c1.903.416 2.313.792 2.313 1.486v.028c0 .722-.704 1.221-1.816 1.221-.03 0-.056-.006-.086-.007v.013H10V30l3.827-.003.026.003c2.167 0 3.676-1.082 3.676-2.901v-.03c0-1.609-1.113-2.345-3.28-2.845-1.978-.445-2.447-.779-2.447-1.529v-.028c0-.639.615-1.152 1.67-1.152l.038-.01v.004h2.803V20h-2.63l-.001.014c-.062-.002-.118-.014-.181-.014C11.465 20 10 21.153 10 22.82v.028c0 1.79 1.231 2.402 3.414 2.902z" fill="#231f20" opacity=".6"/><g opacity=".6"><path d="M2.663 28.408l1.116-1.183a2.37 2.37 0 0 0 1.942 1.17c.91 0 1.53-.62 1.53-1.944V20H9v6.507a3.627 3.627 0 0 1-.909 2.62A3.179 3.179 0 0 1 5.75 30a3.61 3.61 0 0 1-3.086-1.592z" fill="#231f20"/></g></svg>