<svg xmlns="http://www.w3.org/2000/svg" viewBox="0 0 32 32"><path fill="#9aa7b0" opacity=".7" style="isolation:isolate" d="M12 0L4 8h8V0z"/><path fill="#40b6e0" opacity=".6" d="M2 18h30v14H2z"/><path fill="#9aa7b0" opacity=".7" style="isolation:isolate" d="M14 0v10H4v6h22V0H14z"/><path d="M11.947 25.75c1.643.416 1.997.792 1.997 1.486v.028a1.342 1.342 0 0 1-1.568 1.221c-.026 0-.048-.006-.074-.007v.013H9V30l3.304-.003.022.003a2.853 2.853 0 0 0 3.174-2.901v-.03c0-1.609-.962-2.345-2.832-2.845-1.707-.445-2.112-.779-2.112-1.529v-.028a1.252 1.252 0 0 1 1.441-1.152l.033-.01v.004h2.42V20h-2.27l-.002.014c-.053-.002-.101-.014-.156-.014A2.808 2.808 0 0 0 9 22.82v.028c0 1.79 1.063 2.402 2.947 2.902zM16 25.028V25C16 22.279 17.476 20 19.565 20c2.088 0 3.545 2.252 3.545 4.972v.029c0 2.72-1.476 4.999-3.565 4.999C17.457 30 16 27.75 16 25.028zm5.611 0V25c0-1.88-.716-3.44-2.066-3.44s-1.99 1.533-1.99 3.411v.029c0 1.878.66 3.424 2.01 3.424s2.046-1.52 2.046-3.397zM6.5 20v6.45a1.762 1.762 0 0 1-1.779 1.945 1.932 1.932 0 0 1-1.26-.459L3 29.592A3.727 3.727 0 0 0 4.749 30a3.178 3.178 0 0 0 2.342-.874A3.626 3.626 0 0 0 8 26.506V20H6.5zM24.135 20h1.495l3.783 6.778V20H31v10h-1.35l-3.928-6.722V30h-1.587V20z" fill="#231f20" opacity=".6"/></svg>