<svg xmlns="http://www.w3.org/2000/svg" viewBox="0 0 32 32"><g fill="#9aa7b0"><path opacity=".7" style="isolation:isolate" d="M12 0L4 8h8V0z"/><path opacity=".7" style="isolation:isolate" d="M14 0v10H4v6h22V0H14z"/></g><path fill="#F5693C" opacity=".9" d="M2 18h30v14H2z"/><path d="M7.4 25.8c1.9.4 2.3.8 2.3 1.5v.03c0 .7-.7 1.2-1.8 1.2-.03 0-.06-.007-.09-.008v.01H4.9V30l2.9-.003.1.002c2.2 0 3.7-1.08 3.7-2.9v-.03c0-1.6-1.1-2.3-3.3-2.8-2-.4-2.4-.8-2.4-1.5V22.7c0-.6.6-1.2 1.7-1.2h.04v.003h2.8V20H7.7l-.001.01C7.6 20.01 7.6 20 7.5 20c-2 0-3.5 1.2-3.5 2.8v.03c0 1.77 1.2 2.47 3.4 2.97z" fill="#231f20" opacity=".6"/></svg>