<svg xmlns="http://www.w3.org/2000/svg" viewBox="0 0 32 32"><path fill="#9aa7b0" opacity=".7" style="isolation:isolate" d="M12 0L4 8h8V0z"/><path fill="#9aa7b0" opacity=".7" style="isolation:isolate" d="M14 0v10H4v6h22V0H14z"/><path fill="#40b6e0" opacity=".6" d="M2 18h30v14H2z"/><path fill="#231f20" opacity=".6" d="M15.414 25.75c1.903.416 2.313.792 2.313 1.486v.028c0 .722-.704 1.221-1.816 1.221-.03 0-.056-.006-.086-.007v.013H12V30l3.827-.003.026.003c2.167 0 3.676-1.082 3.676-2.901v-.03c0-1.609-1.113-2.345-3.28-2.845-1.978-.445-2.447-.779-2.447-1.529v-.028c0-.639.615-1.152 1.67-1.152l.038-.01v.004h2.803V20h-2.63l-.001.014c-.062-.002-.118-.014-.181-.014C13.465 20 12 21.153 12 22.82v.028c0 1.79 1.231 2.402 3.414 2.902zM29.052 20l-3.424 4.885L29.193 30h-2.035l-2.596-3.814L21.979 30H20l3.551-5.085L20.142 20h2.035l2.442 3.63L27.073 20h1.98z"/><path stroke="#231f20" opacity=".6" stroke-width="2" d="M3 21h8M7 21v9"/></svg>