<svg xmlns="http://www.w3.org/2000/svg" viewBox="0 0 16 16">
  <title>c</title>
  <g>
    <g>
      <polygon points="6 0 2 4 6 4 6 0" fill="#9aa7b0" opacity="0.7" style="isolation: isolate"/>
      <polygon points="7 0 7 4 7 5 6 5 2 5 2 8 13 8 13 0 7 0" fill="#9aa7b0" opacity="0.7" style="isolation: isolate"/>
    </g>
    <rect x="1" y="9" width="15" height="7" fill="#b99bf8" opacity="0.6"/>
    <path d="M2,12.51378v-0.0135A2.34071,2.34071,0,0,1,4.256,10a2.17648,2.17648,0,0,1,1.71247.75245l-0.49364.62873a1.66941,1.66941,0,0,0-1.22494-.60061,1.56578,1.56578,0,0,0-1.44377,1.70566v0.01406a1.56854,1.56854,0,0,0,1.44377,1.71241,1.64046,1.64046,0,0,0,1.256-.62141L6,14.14352A2.16922,2.16922,0,0,1,4.22494,15,2.32705,2.32705,0,0,1,2,12.51378Z" fill="#231f20" opacity="0.6"/>
  </g>
</svg>
