<svg xmlns="http://www.w3.org/2000/svg" viewBox="0 0 16 16">
  <path fill="#9AA7B0" opacity="0.7" d="M2 4 H 6 V 0 Z"/>
  <path fill="#9AA7B0" opacity="0.7" d="M7 0 H 13 V 8 H 2 V 5 H 7 V 0 Z"/>
  <rect x="1" y="9" width="16" height="7" fill="#FF9595" opacity="0.6"/>

  <path d="M2,12.51378v-0.0135A2.34071,2.34071,0,0,1,4.256,10a2.17648,2.17648,0,0,1,1.71247.75245l-0.49364.62873a1.66941,1.66941,0,0,0-1.22494-.60061,1.56578,1.56578,0,0,0-1.44377,1.70566v0.01406a1.56854,1.56854,0,0,0,1.44377,1.71241,1.64046,1.64046,0,0,0,1.256-.62141L6,14.14352A2.16922,2.16922,0,0,1,4.22494,15,2.32705,2.32705,0,0,1,2,12.51378Z"
    fill="#231f20"
    opacity="0.7"/>
  <line stroke="#231f20"
    stroke-width=".6"
    x1="8.5"
    y1="11"
    x2="8.5"
    y2="14"
  />
  <line stroke="#231f20"
    stroke-width=".6"
    x1="7"
    y1="12.5"
    x2="10"
    y2="12.5"
  />
  <line stroke="#231f20"
    stroke-width=".6"
    x1="11"
    y1="12.5"
    x2="14"
    y2="12.5"
  />
  <line stroke="#231f20"
    stroke-width=".6"
    x1="12.5"
    y1="11"
    x2="12.5"
    y2="14"
  />
</svg>
