<svg xmlns="http://www.w3.org/2000/svg" xmlns:xlink="http://www.w3.org/1999/xlink" width="320" height="320"><defs><g id="a"><path fill="#00a5ea" d="M40 40l40-20L40 0 0 20z"/><path fill="#2b6cb7" d="M40 40L0 20v40l40 20z"/><path fill="#363a67" d="M40 40v40l40-20V20z"/></g></defs><path fill="#00a5ea" d="M20 80L160 0l140 80-40 20-100-60-100 60z"/><path fill="#2b6cb7" d="M160 320L20 240V80l40 20v120l100 60z"/><path fill="#363a67" d="M300 80v160l-140 80v-40l100-60V100z"/><use x="120" y="60" xlink:href="#a"/><use x="70" y="150" xlink:href="#a"/><use x="170" y="150" xlink:href="#a"/><use x="70" y="90" xlink:href="#a"/><use x="170" y="90" xlink:href="#a"/><use x="120" y="180" xlink:href="#a"/><use x="120" y="120" xlink:href="#a"/></svg>